<?xml version="1.0" encoding="UTF-8" standalone="no"?><!DOCTYPE svg PUBLIC "-//W3C//DTD SVG 1.1//EN" "http://www.w3.org/Graphics/SVG/1.1/DTD/svg11.dtd"><svg width="100%" height="100%" viewBox="0 0 6000 7138" version="1.1" xmlns="http://www.w3.org/2000/svg" xmlns:xlink="http://www.w3.org/1999/xlink" xml:space="preserve" xmlns:serif="http://www.serif.com/" style="fill-rule:evenodd;clip-rule:evenodd;stroke-linejoin:round;stroke-miterlimit:2;"><circle cx="2985.05" cy="3546.99" r="2913.03"/><circle cx="2985.05" cy="3546.99" r="2598.91" style="fill:#fed336;"/><g><path d="M789.704,2551.09l14.702,2712.57l2853.76,1073.69l1396.94,-1112.12l0,-2651.65l-1327.1,-534.721l-340.677,66.76l0,3738.87l-2285.36,-745.774l-44.105,-2628.28l-268.149,80.666Zm2944.42,-130.814l0,3445.7l1104.82,-751.502l-0,-2385.96l-1104.82,-308.239Z" style="fill:#fff;"/><path d="M3069.91,966.113l-219.051,51.743l2.94,-257.283l-58.838,-40.487l-125.573,38.383l-5.881,301.657l-191.481,49.191l-5.881,239.646l611.137,-127.163l60.598,48.021l-12.407,-253.704l-55.563,-50.004Z" style="fill:#fff;"/><path d="M2880.5,1305.11l65.491,-14.184l11.761,2226.26l60.35,2.105l0,50.454l-53.914,15.287l-1.975,223.445l-251.179,38.314l-297.166,-49.224l-3.422,-62.786l-643.421,55.752l-0,-68.174l768.59,-78.641l1.788,-127.078l94.822,-15.222l-23.268,-2137.49l56.399,-12.215l36.595,2152.49l178.549,6.267l0,-2205.35Z" style="fill:#fff;"/><path d="M1092.43,2480.42l1505.04,167.457l-0,197.349l-1503.59,-111.068l-1.449,-253.738Z" style="fill:#fff;"/><path d="M2971.51,2630.01l-0,214.631l404.328,-2.553l-0,-224.018l-404.328,11.94Z" style="fill:#fff;"/><path d="M2708.11,2643.77l2.185,207.366l152.69,0.09l-0.495,-212.99l-154.38,5.534Z" style="fill:#fff;"/><path d="M3745.48,2613.51l0,232.273l1069.46,-5.817l-4.085,-94.875l-460.025,-126.428l-605.347,-5.153Z" style="fill:#fff;"/><path d="M1155.5,5091.11l431.791,146.437l1261.22,-419.231l523.323,117.581l0,-121.212l-475.567,-109.296l0,-860.286l-173.714,28.963l-31.968,-10.197l-0,838.401l-1535.09,388.84Z" style="fill:#fff;"/><path d="M2731.98,3479.29l123.906,5.657l-0,-602.793l-129.086,0l5.18,597.136Z" style="fill:#fff;"/><path d="M3752.52,5005.18l0,-119l1078.71,178.734l0,43.812l-112.528,80.863l-966.179,-184.409Z" style="fill:#fff;"/></g></svg>